<svg width="1080" height="1080" viewBox="0 0 1080 1080" fill="none" xmlns="http://www.w3.org/2000/svg">
<g clip-path="url(#clip0_1_834)">
<path d="M1004.34 615.445L1003.52 620.279L937.097 609.119L937.913 604.285L1004.34 615.445Z" fill="#9C78FF"/>
<path d="M981.181 705.407L916.851 685.443L918.046 681.578L987.524 655.083L931.647 637.739L933.098 633.045L997.428 653.009L996.201 656.962L926.755 683.368L982.632 700.712L981.181 705.407Z" fill="#9C78FF"/>
<path d="M941.117 787.187L881.818 755.261L883.74 751.704L957.015 739.024L905.489 711.291L907.81 706.979L967.109 738.905L965.155 742.551L891.936 755.154L943.443 782.894L941.117 787.187Z" fill="#9C78FF"/>
<path d="M865.174 785.486C870.868 783.272 876.677 782.641 882.623 783.607C888.564 784.555 894.023 787.073 898.958 791.156C903.912 795.233 907.415 800.114 909.476 805.757C911.542 811.418 912.04 817.247 910.954 823.251C909.868 829.254 907.221 834.812 903.028 839.9C898.816 844.993 893.89 848.669 888.22 850.896C882.549 853.123 876.746 853.771 870.8 852.806C864.853 851.84 859.371 849.309 854.383 845.183C849.377 841.063 845.85 836.17 843.784 830.509C841.718 824.848 841.243 819.031 842.353 813.04C843.463 807.049 846.114 801.509 850.326 796.416C854.543 791.34 859.498 787.695 865.174 785.486ZM847.061 813.579C846.143 818.721 846.593 823.755 848.407 828.665C850.221 833.574 853.286 837.801 857.582 841.35C861.879 844.9 866.628 847.104 871.784 847.94C876.945 848.793 881.958 848.27 886.845 846.384C891.714 844.504 895.96 841.374 899.552 837.025C903.145 832.676 905.403 827.909 906.352 822.738C907.301 817.567 906.851 812.532 905.037 807.623C903.223 802.714 900.158 798.487 895.862 794.937C891.565 791.388 886.816 789.183 881.66 788.348C876.504 787.513 871.468 788.023 866.569 789.933C861.669 791.842 857.423 794.972 853.831 799.321C850.238 803.67 847.974 808.419 847.061 813.579Z" fill="#9C78FF"/>
<path d="M821.085 910.396C814.825 910.396 809.401 907.669 804.848 902.204C800.33 896.788 798.618 890.998 799.756 884.84C800.894 878.682 804.691 872.888 811.189 867.462L825.961 855.135L811.843 838.211L815.611 835.071L858.77 886.778L840.235 902.264C833.731 907.671 827.34 910.378 821.085 910.396ZM804.413 885.02C803.519 889.858 804.939 894.514 808.696 899C812.429 903.474 816.778 905.724 821.718 905.737C826.659 905.75 831.896 903.46 837.403 898.854L852.175 886.526L828.805 858.521L814.033 870.848C808.507 875.46 805.301 880.164 804.413 885.02Z" fill="#9C78FF"/>
<path d="M721.754 900.562L746.95 911.987C748.844 910.513 750.656 909.282 752.366 908.299L769.013 898.65L757.967 879.592L762.222 877.131L795.98 935.417L775.078 947.527C767.741 951.77 761.004 953.359 754.833 952.305C748.661 951.25 743.793 947.641 740.228 941.475C737.56 936.87 736.49 932.323 737.031 927.811C737.572 923.299 739.667 919.156 743.302 915.327L716.913 903.362L721.754 900.562ZM754.534 912.052C748.32 915.652 744.362 919.778 742.679 924.426C740.996 929.074 741.624 933.915 744.55 938.974C747.477 944.033 751.369 946.977 756.232 947.824C761.095 948.67 766.633 947.294 772.847 943.694L789.493 934.046L771.162 902.409L754.534 912.052Z" fill="#9C78FF"/>
<path d="M692.715 917.714C698.726 918.759 704.048 921.221 708.642 925.093C713.242 928.983 716.612 933.945 718.759 939.995C720.888 946.052 721.39 952.018 720.239 957.943C719.107 963.862 716.503 969.11 712.488 973.689C708.455 978.273 703.326 981.675 697.113 983.873C690.882 986.075 684.764 986.663 678.765 985.655C672.766 984.646 667.466 982.196 662.849 978.311C658.25 974.421 654.868 969.424 652.704 963.319C650.541 957.214 650.046 951.206 651.178 945.287C652.311 939.368 654.92 934.138 658.946 929.595C662.99 925.047 668.125 921.662 674.356 919.46C680.581 917.239 686.705 916.669 692.715 917.714ZM662.709 932.441C659.263 936.369 657.057 940.922 656.097 946.057C655.119 951.198 655.56 956.393 657.425 961.662C659.291 966.931 662.204 971.244 666.194 974.631C670.184 978.019 674.738 980.165 679.892 981.06C685.047 981.955 690.273 981.485 695.595 979.602C700.918 977.72 705.308 974.802 708.79 970.862C712.267 966.905 714.479 962.37 715.457 957.229C716.435 952.089 715.994 946.893 714.128 941.625C712.262 936.356 709.349 932.043 705.359 928.655C701.37 925.268 696.798 923.127 691.607 922.243C686.435 921.354 681.178 921.853 675.85 923.718C670.545 925.595 666.149 928.494 662.709 932.441Z" fill="#9C78FF"/>
<path d="M582.203 975.004L577.545 975.713L573.788 950.787C576.282 947.548 579.509 944.892 583.428 942.811C587.365 940.725 591.656 939.339 596.278 938.641C602.882 937.646 609.041 938.211 614.771 940.33C620.501 942.448 625.266 945.853 629.061 950.525C632.837 955.203 635.222 960.746 636.179 967.164C637.149 973.559 636.498 979.566 634.257 985.156C632.016 990.747 628.477 995.395 623.603 999.114C618.748 1002.83 612.979 1005.18 606.321 1006.19C601.435 1006.93 596.836 1006.82 592.5 1005.89C588.182 1004.95 584.324 1003.2 580.954 1000.67L583.506 996.976C586.724 999.338 590.145 1000.89 593.787 1001.62C597.424 1002.33 601.35 1002.38 605.535 1001.74C611.253 1000.88 616.209 998.832 620.422 995.595C624.635 992.357 627.713 988.325 629.64 983.444C631.573 978.581 632.122 973.395 631.282 967.868C630.465 962.414 628.397 957.642 625.085 953.571C621.773 949.5 617.649 946.51 612.689 944.646C607.741 942.759 602.411 942.255 596.693 943.114C589.089 944.26 583.08 947.243 578.684 952.058L582.203 975.004Z" fill="#9C78FF"/>
<path d="M477.612 943.493L478.007 939.086L524.29 943.281L518.212 1010.37L473.37 1006.3L473.765 1001.89L513.729 1005.51L516.117 979.063L480.376 975.815L480.763 971.509L516.504 974.757L518.999 947.247L477.612 943.493Z" fill="#9C78FF"/>
<path d="M442.377 1000.97L416.686 993.885C409.948 992.019 404.351 988.99 399.884 984.762C395.418 980.535 392.423 975.576 390.872 969.854C389.32 964.133 389.41 958.161 391.128 951.903C392.852 945.663 395.849 940.471 400.11 936.369C404.366 932.249 409.51 929.534 415.495 928.197C421.498 926.854 427.86 927.119 434.592 928.967L460.283 936.053L442.377 1000.97ZM433.805 933.319C427.802 931.659 422.192 931.399 416.964 932.502C411.742 933.623 407.292 935.966 403.645 939.562C399.991 943.14 397.409 947.69 395.892 953.195C394.375 958.7 394.272 963.925 395.566 968.877C396.86 973.829 399.469 978.117 403.382 981.766C407.294 985.414 412.261 988.065 418.258 989.706L438.853 995.386L454.418 938.992L433.805 933.319Z" fill="#9C78FF"/>
<path d="M375.631 915.953C377.649 922.479 376.553 929.986 372.327 938.481L355.059 973.204L350.673 971.025L367.853 936.467C371.543 929.046 372.596 922.678 371.036 917.315C369.477 911.951 365.471 907.68 359.048 904.472C352.679 901.307 346.885 900.708 341.655 902.7C336.444 904.687 331.996 909.399 328.301 916.801L311.12 951.36L306.734 949.181L324.002 914.457C328.228 905.963 333.569 900.56 340.023 898.248C346.477 895.937 353.52 896.682 361.153 900.484C368.786 904.286 373.614 909.428 375.631 915.953Z" fill="#9C78FF"/>
<path d="M306.422 873.307C308.903 878.839 309.815 884.6 309.153 890.571C308.491 896.542 306.214 902.144 302.352 907.347C298.485 912.531 293.771 916.319 288.211 918.65C282.658 920.999 276.894 921.773 270.878 920.967C264.868 920.179 259.215 917.799 253.925 913.846C250.021 910.926 246.888 907.628 244.535 903.913C242.182 900.197 240.764 896.251 240.295 892.051L244.661 891.353C245.792 898.844 249.737 905.089 256.465 910.118C260.986 913.499 265.877 915.522 271.113 916.234C276.349 916.945 281.371 916.262 286.185 914.201C290.998 912.14 295.068 908.888 298.406 904.419C301.744 899.951 303.706 895.119 304.31 889.916C304.913 884.714 304.116 879.707 301.954 874.886C299.792 870.064 296.432 865.968 291.917 862.605C285.241 857.619 278.099 855.66 270.508 856.723L269.942 852.336C274.094 851.586 278.314 851.821 282.591 853.007C286.868 854.193 290.935 856.234 294.786 859.111C300.047 863.034 303.942 867.774 306.422 873.307Z" fill="#9C78FF"/>
<path d="M221.954 817.841L248.996 846.035L268.615 839.101L272.285 842.923L202.23 867.168L198.822 863.62L225.996 794.632L229.666 798.454L221.954 817.841ZM220.227 822.029L204.432 861.708L244.673 847.51L220.227 822.029Z" fill="#9C78FF"/>
<path d="M162.226 812.569L176.307 832.309L172.7 834.885L141.702 791.405L145.309 788.829L159.39 808.568L210.641 772.048L213.496 776.043L162.226 812.569Z" fill="#9C78FF"/>
<path d="M131.819 773.429L129.413 769.157L188.095 736.105L190.502 740.377L131.819 773.429Z" fill="#9C78FF"/>
<path d="M168.459 706.57C167.64 712.61 165.379 718.008 161.653 722.755C157.944 727.495 153.098 731.047 147.133 733.405C141.167 735.763 135.208 736.479 129.254 735.555C123.301 734.631 117.959 732.234 113.233 728.383C108.508 724.531 104.923 719.518 102.492 713.377C100.06 707.237 99.2451 701.15 100.04 695.098C100.823 689.07 103.084 683.671 106.792 678.931C110.5 674.19 115.383 670.627 121.402 668.252C127.422 665.878 133.418 665.15 139.371 666.074C145.324 666.999 150.649 669.401 155.338 673.263C160.033 677.144 163.594 682.145 166.025 688.286C168.48 694.438 169.277 700.531 168.459 706.57ZM152.645 677.137C148.588 673.849 143.966 671.803 138.803 671.009C133.641 670.216 128.447 670.854 123.258 672.912C118.068 674.971 113.842 678.035 110.612 682.153C107.377 686.254 105.396 690.895 104.686 696.071C103.975 701.248 104.643 706.472 106.718 711.715C108.793 716.959 111.861 721.263 115.93 724.587C119.999 727.91 124.621 729.957 129.801 730.745C134.982 731.533 140.158 730.901 145.347 728.842C150.536 726.784 154.763 723.72 157.992 719.601C161.227 715.501 163.203 710.841 163.902 705.629C164.601 700.417 163.916 695.198 161.853 689.931C159.76 684.693 156.703 680.425 152.645 677.137Z" fill="#9C78FF"/>
<path d="M72.6132 597.629L138.859 585.464L139.595 589.442L90.3457 645.151L147.885 634.591L148.764 639.414L82.5364 651.574L81.7902 647.5L131.049 591.887L73.5102 602.447L72.6132 597.629Z" fill="#9C78FF"/>
<path d="M65.8587 533.365L65.94 528.837L155.985 530.543L155.903 535.071L65.8587 533.365Z" fill="#9C78FF"/>
<path d="M75.4368 468.02L76.2113 463.179L142.701 473.904L141.926 478.745L75.4368 468.02Z" fill="#9C78FF"/>
<path d="M97.99 377.89L162.442 397.421L161.266 401.28L91.9688 428.232L147.967 445.203L146.539 449.91L82.087 430.379L83.2899 426.413L152.555 399.549L96.5563 382.579L97.99 377.89Z" fill="#9C78FF"/>
<path d="M137.486 295.87L197.015 327.39L195.117 330.959L121.938 344.142L173.633 371.528L171.341 375.87L111.807 344.332L113.737 340.674L186.866 327.585L135.171 300.2L137.486 295.87Z" fill="#9C78FF"/>
<path d="M213.441 297.034C207.758 299.285 201.961 299.952 196.007 299.027C190.059 298.121 184.588 295.626 179.604 291.578C174.62 287.53 171.087 282.679 168.972 277.052C166.852 271.408 166.335 265.584 167.38 259.574C168.425 253.564 171.029 247.999 175.206 242.857C179.37 237.739 184.286 234.027 189.927 231.77C195.586 229.507 201.378 228.822 207.331 229.746C213.285 230.67 218.774 233.16 223.81 237.251C228.847 241.342 232.404 246.206 234.507 251.856C236.609 257.505 237.138 263.306 236.069 269.303C235.001 275.301 232.373 280.853 228.209 285.972C224.044 291.09 219.124 294.784 213.441 297.034ZM231.378 268.819C232.254 263.67 231.786 258.641 229.936 253.743C228.086 248.844 224.991 244.647 220.664 241.126C216.337 237.606 211.581 235.443 206.412 234.631C201.244 233.82 196.219 234.366 191.362 236.283C186.504 238.199 182.281 241.341 178.718 245.721C175.155 250.101 172.919 254.879 172.012 260.057C171.105 265.235 171.574 270.265 173.424 275.163C175.274 280.061 178.368 284.258 182.695 287.779C187.022 291.299 191.779 293.462 196.947 294.274C202.115 295.085 207.134 294.521 212.023 292.575C216.911 290.63 221.128 287.47 224.691 283.09C228.266 278.746 230.483 273.973 231.378 268.819Z" fill="#9C78FF"/>
<path d="M256.677 171.855C262.944 171.814 268.375 174.499 272.977 179.929C277.543 185.31 279.272 191.095 278.194 197.254C277.122 203.431 273.348 209.238 266.885 214.712L252.206 227.149L266.452 243.974L262.712 247.145L219.195 195.746L237.631 180.133C244.035 174.657 250.41 171.897 256.677 171.855ZM273.513 197.122C274.365 192.277 272.909 187.632 269.14 183.169C265.371 178.706 261.015 176.498 256.067 176.527C251.119 176.555 245.912 178.876 240.434 183.512L225.755 195.949L249.308 223.78L263.987 211.343C269.483 206.701 272.655 201.949 273.513 197.122Z" fill="#9C78FF"/>
<path d="M356.119 180.964L330.854 169.698C328.965 171.191 327.172 172.416 325.449 173.423L308.854 183.174L320.021 202.176L315.795 204.667L281.637 146.622L302.458 134.38C309.761 130.088 316.499 128.439 322.683 129.47C328.861 130.483 333.76 134.063 337.373 140.194C340.077 144.788 341.165 149.33 340.661 153.83C340.138 158.336 338.071 162.51 334.46 166.352L360.931 178.134L356.119 180.964ZM323.251 169.699C329.448 166.045 333.364 161.912 335.024 157.252C336.684 152.591 336.02 147.761 333.057 142.713C330.1 137.683 326.177 134.768 321.302 133.945C316.426 133.122 310.899 134.535 304.702 138.188L288.107 147.94L306.638 179.456L323.251 169.699Z" fill="#9C78FF"/>
<path d="M384.989 163.647C378.971 162.643 373.641 160.223 369.012 156.362C364.382 152.501 360.981 147.568 358.798 141.529C356.615 135.49 356.09 129.51 357.186 123.603C358.277 117.677 360.839 112.422 364.843 107.807C368.847 103.192 373.947 99.7591 380.166 97.5203C386.386 95.2816 392.487 94.6396 398.493 95.6067C404.499 96.5739 409.829 98.9943 414.453 102.837C419.083 106.699 422.495 111.667 424.695 117.76C426.895 123.854 427.449 129.864 426.335 135.777C425.226 141.708 422.682 146.958 418.667 151.537C414.652 156.115 409.546 159.53 403.327 161.769C397.131 164.02 391.024 164.644 384.989 163.647ZM414.892 148.715C418.309 144.755 420.479 140.214 421.415 135.066C422.352 129.919 421.869 124.716 419.991 119.471C418.095 114.232 415.14 109.912 411.138 106.548C407.135 103.184 402.551 101.067 397.384 100.195C392.217 99.3242 386.99 99.8541 381.696 101.767C376.385 103.686 372 106.621 368.565 110.586C365.112 114.556 362.93 119.121 361.988 124.251C361.051 129.398 361.534 134.601 363.412 139.846C365.314 145.103 368.263 149.405 372.265 152.769C376.267 156.133 380.87 158.245 386.049 159.093C391.234 159.958 396.479 159.423 401.791 157.504C407.132 155.616 411.475 152.674 414.892 148.715Z" fill="#9C78FF"/>
<path d="M495.13 105.602L499.783 104.875L503.707 129.769C501.236 133.021 498.033 135.689 494.107 137.811C490.182 139.933 485.92 141.35 481.285 142.072C474.692 143.103 468.527 142.58 462.771 140.508C457.016 138.436 452.239 135.055 448.408 130.394C444.596 125.727 442.18 120.214 441.169 113.812C440.158 107.411 440.749 101.402 442.966 95.7996C445.16 90.1844 448.676 85.5231 453.515 81.7562C458.341 78.0128 464.093 75.6027 470.74 74.5549C475.62 73.7966 480.22 73.8557 484.551 74.7682C488.881 75.6807 492.747 77.3887 496.135 79.9157L493.607 83.6199C490.376 81.2813 486.942 79.7559 483.293 79.0672C479.644 78.3785 475.729 78.3642 471.549 79.0245C465.842 79.9199 460.897 82.0016 456.708 85.2516C452.519 88.5017 449.476 92.5825 447.567 97.458C445.676 102.328 445.15 107.526 446.026 113.042C446.879 118.485 448.983 123.246 452.307 127.293C455.632 131.34 459.786 134.302 464.759 136.142C469.731 137.981 475.056 138.468 480.763 137.573C488.368 136.367 494.348 133.353 498.715 128.507L495.13 105.602Z" fill="#9C78FF"/>
<path d="M599.933 136.396L599.562 140.816L553.26 136.943L558.873 69.8218L603.757 73.5809L603.386 78.0008L563.405 74.6416L561.177 101.101L596.941 104.105L596.578 108.424L560.814 105.42L558.504 132.952L599.933 136.396Z" fill="#9C78FF"/>
<path d="M634.778 78.6831L660.515 85.597C667.26 87.4218 672.887 90.4216 677.361 94.6076C681.84 98.8115 684.888 103.754 686.476 109.464C688.063 115.174 688.016 121.153 686.339 127.418C684.662 133.683 681.707 138.882 677.457 143.02C673.225 147.152 668.116 149.916 662.129 151.313C656.137 152.691 649.774 152.486 643.029 150.661L617.293 143.747L634.778 78.6831ZM643.805 146.274C649.815 147.892 655.432 148.11 660.649 146.972C665.878 145.809 670.299 143.435 673.922 139.827C677.546 136.218 680.105 131.655 681.581 126.144C683.056 120.632 683.135 115.394 681.811 110.472C680.481 105.531 677.836 101.254 673.893 97.6347C669.95 94.0154 664.976 91.4059 658.967 89.7882L638.333 84.2394L623.154 140.731L643.805 146.274Z" fill="#9C78FF"/>
<path d="M702.114 163.242C700.043 156.733 701.097 149.219 705.27 140.681L722.302 105.833L726.719 107.983L709.768 142.648C706.144 150.088 705.115 156.468 706.71 161.821C708.306 167.173 712.324 171.42 718.79 174.576C725.184 177.694 730.985 178.251 736.185 176.228C741.386 174.206 745.804 169.463 749.434 162.041L766.385 127.377L770.801 129.526L753.769 164.374C749.596 172.912 744.303 178.34 737.865 180.705C731.423 183.052 724.378 182.367 716.72 178.612C709.05 174.881 704.185 169.75 702.114 163.242Z" fill="#9C78FF"/>
<path d="M771.596 205.428C769.079 199.907 768.131 194.157 768.752 188.179C769.366 182.183 771.602 176.575 775.44 171.359C779.278 166.144 783.969 162.344 789.493 159.965C795.018 157.586 800.788 156.769 806.811 157.534C812.834 158.298 818.488 160.619 823.808 164.543C827.743 167.434 830.894 170.725 833.26 174.417C835.625 178.11 837.084 182.062 837.571 186.256L833.217 186.99C832.032 179.517 828.051 173.283 821.279 168.306C816.728 164.954 811.842 162.949 806.6 162.279C801.357 161.61 796.34 162.311 791.538 164.408C786.736 166.505 782.695 169.788 779.386 174.287C776.077 178.785 774.139 183.63 773.595 188.834C773.033 194.043 773.848 199.044 776.059 203.831C778.257 208.642 781.629 212.714 786.175 216.048C792.894 220.981 800.043 222.899 807.64 221.794L808.242 226.17C804.096 226.938 799.869 226.744 795.603 225.594C791.314 224.432 787.24 222.433 783.358 219.585C778.037 215.661 774.113 210.95 771.596 205.428Z" fill="#9C78FF"/>
<path d="M856.435 260.305L829.21 232.287L809.654 239.359L805.972 235.561L875.858 210.835L879.278 214.36L852.572 283.518L848.89 279.72L856.435 260.305ZM858.12 256.111L873.643 216.319L833.486 230.787L858.12 256.111Z" fill="#9C78FF"/>
<path d="M916.195 265.173L901.987 245.532L905.571 242.943L936.86 286.214L933.276 288.803L919.068 269.162L868.083 306.035L865.216 302.063L916.195 265.173Z" fill="#9C78FF"/>
<path d="M946.87 304.092L949.313 308.353L890.854 341.809L888.411 337.548L946.87 304.092Z" fill="#9C78FF"/>
<path d="M910.69 371.223C911.467 365.177 913.704 359.765 917.383 354.994C921.063 350.223 925.88 346.641 931.834 344.247C937.789 341.853 943.737 341.1 949.697 341.983C955.658 342.866 961.007 345.221 965.763 349.043C970.519 352.865 974.133 357.85 976.601 363.979C979.068 370.108 979.925 376.202 979.184 382.237C978.425 388.278 976.224 393.678 972.545 398.449C968.866 403.22 964.013 406.814 958.004 409.224C951.995 411.635 946.017 412.417 940.051 411.516C934.09 410.633 928.759 408.273 924.016 404.427C919.296 400.593 915.699 395.603 913.232 389.474C910.752 383.368 909.913 377.269 910.69 371.223ZM926.709 400.553C930.779 403.817 935.413 405.84 940.6 406.587C945.77 407.339 950.953 406.664 956.136 404.588C961.314 402.494 965.512 399.399 968.718 395.268C971.923 391.137 973.881 386.483 974.55 381.3C975.219 376.117 974.515 370.904 972.404 365.671C970.293 360.439 967.194 356.164 963.095 352.869C958.996 349.575 954.361 347.552 949.192 346.8C944.022 346.048 938.84 346.722 933.656 348.799C928.478 350.893 924.28 353.988 921.075 358.119C917.869 362.25 915.916 366.921 915.253 372.123C914.596 377.342 915.299 382.555 917.416 387.805C919.533 393.056 922.621 397.295 926.709 400.553Z" fill="#9C78FF"/>
<path d="M1007.25 479.487L941.089 492.102L940.334 488.129L989.203 432.084L931.727 443.039L930.812 438.227L996.978 425.612L997.76 429.675L948.881 485.625L1006.36 474.669L1007.25 479.487Z" fill="#9C78FF"/>
<path d="M1014.44 543.756L1014.38 548.278L924.329 547.186L924.393 542.664L1014.44 543.756Z" fill="#9C78FF"/>
<path d="M872.57 667.025C820.327 639.366 767.009 614.349 713.37 590.124C697.202 582.86 680.976 575.709 664.732 568.634C674.693 570.351 684.674 572.049 694.654 573.672C745.312 581.86 796.102 589.331 847.382 594.388C798.121 579.275 748.369 566.578 698.484 554.597C687.183 551.918 675.882 549.296 664.581 546.711C683.787 546.258 702.994 545.749 722.219 545.051C781.027 542.843 839.854 539.787 898.663 533.9C839.854 527.995 781.027 524.938 722.219 522.75C702.579 522.052 682.938 521.523 663.298 521.071C675.014 518.354 686.73 515.599 698.428 512.788C748.293 500.676 798.008 487.846 847.213 472.602C795.951 477.79 745.18 485.393 694.541 493.732C683.089 495.638 671.656 497.619 660.222 499.619C677.75 491.751 695.258 483.808 712.691 475.733C766.047 450.886 819.063 425.227 870.985 396.964C814.497 414.359 759.104 434.358 704.031 455.15C687.466 461.451 670.939 467.866 654.449 474.337C662.713 468.507 670.958 462.659 679.165 456.753C720.766 426.736 761.972 396.096 801.8 363.4C756.274 387.549 712.125 413.737 668.373 440.547C658.487 446.641 648.638 452.772 638.808 458.942C652.072 445.037 665.298 431.094 678.391 417.02C718.427 373.871 757.84 330.118 795.272 284.366C749.52 321.779 705.767 361.211 662.618 401.247C648.242 414.642 633.978 428.151 619.772 441.716C626.149 431.509 632.488 421.283 638.771 411.02C665.467 367.211 691.541 322.987 715.559 277.385C682.976 317.308 652.449 358.589 622.545 400.266C615.791 409.718 609.112 419.189 602.433 428.698C609.263 410.737 616.036 392.757 622.639 374.701C642.789 319.402 662.147 263.782 678.863 207.087C651.204 259.33 626.186 312.648 601.961 366.286C594.697 382.455 587.547 398.681 580.472 414.925C582.189 404.964 583.887 394.983 585.509 385.002C593.698 334.345 601.169 283.555 606.225 232.274C591.113 281.536 578.415 331.288 566.435 381.172C563.756 392.474 561.133 403.775 558.548 415.076C558.096 395.87 557.586 376.663 556.888 357.438C554.681 298.629 551.624 239.802 545.738 180.994C539.832 239.802 536.776 298.629 534.587 357.438C533.889 377.04 533.361 396.624 532.908 416.227C530.21 404.548 527.456 392.87 524.663 381.21C512.57 331.345 499.721 281.63 484.439 232.425C489.59 283.706 497.193 334.477 505.532 385.097C507.419 396.455 509.381 407.812 511.381 419.151C503.551 401.7 495.646 384.285 487.609 366.928C462.761 313.572 437.102 260.556 408.802 208.653C426.159 265.16 446.158 320.553 466.968 375.607C473.232 392.096 479.609 408.529 486.062 424.925C480.27 416.755 474.496 408.567 468.647 400.435C438.63 358.815 407.99 317.629 375.275 277.819C399.387 323.364 425.574 367.513 452.403 411.265C458.44 421.076 464.534 430.849 470.647 440.603C456.818 427.396 442.932 414.246 428.933 401.209C385.803 361.173 342.031 321.76 296.241 284.366C333.636 330.156 373.049 373.909 413.084 417.057C426.423 431.377 439.875 445.565 453.365 459.715C443.234 453.395 433.083 447.093 422.895 440.867C379.086 414.171 334.862 388.096 289.242 364.098C329.145 396.719 370.407 427.245 412.103 457.149C421.48 463.847 430.876 470.488 440.309 477.092C422.442 470.3 404.538 463.564 386.557 456.98C331.258 436.83 275.639 417.472 218.925 400.794C271.148 428.472 324.466 453.508 378.105 477.733C394.18 484.959 410.33 492.072 426.48 499.11C416.612 497.412 406.726 495.732 396.84 494.11C346.201 485.903 295.392 478.45 244.112 473.432C293.374 488.582 343.107 501.279 393.01 513.241C404.217 515.901 415.424 518.505 426.65 521.071C407.537 521.523 388.406 522.033 369.294 522.712C310.486 524.901 251.659 527.976 192.851 533.919C251.659 539.862 310.486 542.919 369.294 545.126C388.84 545.824 408.386 546.352 427.933 546.805C416.292 549.503 404.67 552.22 393.048 555.031C343.182 567.125 293.468 579.973 244.263 595.255C295.543 590.105 346.314 582.501 396.934 574.162C408.292 572.276 419.65 570.313 430.989 568.313C413.537 576.143 396.123 584.049 378.765 592.086C325.41 616.934 272.394 642.593 220.491 670.893C276.997 653.535 332.39 633.536 387.444 612.726C403.934 606.462 420.367 600.085 436.762 593.633C428.593 599.425 420.405 605.198 412.273 611.047C370.653 641.064 329.466 671.704 289.657 704.42C335.202 680.308 379.35 654.12 423.103 627.291C432.913 621.254 442.687 615.16 452.441 609.047C439.234 622.877 426.084 636.763 413.047 650.762C373.011 693.911 333.598 737.663 296.204 783.453C341.994 746.059 385.746 706.646 428.895 666.61C443.215 653.271 457.403 639.819 471.553 626.329C465.233 636.461 458.931 646.611 452.705 656.799C426.008 700.608 399.934 744.833 375.935 790.453C408.556 750.549 439.083 709.287 468.987 667.591C475.685 658.214 482.326 648.819 488.929 639.385C482.137 657.271 475.402 675.157 468.817 693.137C448.667 748.436 429.31 804.056 412.632 860.77C440.309 808.546 465.346 755.228 489.571 701.589C496.797 685.515 503.91 669.365 510.947 653.215C509.249 663.082 507.57 672.968 505.947 682.855C497.74 733.493 490.288 784.302 485.269 835.583C500.419 786.321 513.117 736.588 525.078 686.685C527.739 675.478 530.342 664.271 532.908 653.045C533.361 672.157 533.87 691.288 534.55 710.4C536.738 769.209 539.814 828.036 545.757 886.844C551.7 828.036 554.756 769.209 556.964 710.4C557.662 690.816 558.19 671.214 558.643 651.63C561.341 663.309 564.095 674.968 566.888 686.628C579 736.493 591.83 786.208 607.074 835.413C601.886 784.151 594.282 733.38 585.962 682.741C584.057 671.289 582.075 659.856 580.076 648.422C587.943 665.95 595.886 683.458 603.961 700.891C628.809 754.247 654.468 807.263 682.731 859.166C665.335 802.679 645.336 747.285 624.545 692.213C618.243 675.647 611.829 659.12 605.357 642.63C611.187 650.894 617.036 659.139 622.941 667.346C652.959 708.948 683.598 750.153 716.295 789.981C692.145 744.455 665.958 700.307 639.148 656.554C633.054 646.668 626.922 636.819 620.753 626.99C634.658 640.253 648.6 653.479 662.675 666.572C705.824 706.608 749.576 746.021 795.328 783.453C757.915 737.701 718.483 693.948 678.448 650.8C665.052 636.423 651.544 622.16 637.978 607.953C648.185 614.33 658.411 620.669 668.675 626.952C712.484 653.649 756.708 679.723 802.309 703.74C762.387 671.157 721.106 640.63 679.429 610.726C669.977 603.972 660.505 597.293 650.996 590.614C668.958 597.444 686.938 604.217 704.994 610.821C760.255 630.952 815.875 650.309 872.57 667.025Z" fill="#9C78FF"/>
<path d="M711.031 386.908H545.756H380.482L352.238 615.764H545.756H739.275L711.031 386.908Z" fill="white"/>
<path d="M739.275 621.443H352.239L346.616 615.085L374.86 386.229L380.482 381.248H711.031L716.653 386.229L744.897 615.085L739.275 621.443ZM358.653 610.104H732.86L706.012 392.587H385.501L358.653 610.104Z" fill="black"/>
<path d="M693.579 413.944L687.07 408.171H403.273L396.764 413.944L375.558 585.822L382.067 593.18H708.276L714.785 585.822L693.579 413.944Z" fill="black"/>
<path d="M797.008 615.953H545.757H294.524V632.311H545.757H797.008V615.953Z" fill="white"/>
<path d="M797.008 637.97H294.525L288.846 632.292V615.934L294.525 610.255H797.008L802.687 615.934V632.292L797.008 637.97ZM300.185 626.631H791.329V621.613H300.185V626.631Z" fill="black"/>
<path d="M592.414 613.443H499.099V634.82H592.414V613.443Z" fill="black"/>
<path d="M531.701 452.301H438.196V463.696H531.701V452.301Z" fill="#9C78FF"/>
<path d="M528.456 478.413H434.951V489.809H528.456V478.413Z" fill="#9C78FF"/>
<path d="M652.902 506.656H457.705V518.052H652.902V506.656Z" fill="#9C78FF"/>
<path d="M652.902 537.674H457.705V549.069H652.902V537.674Z" fill="#9C78FF"/>
</g>
<defs>
<clipPath id="clip0_1_834">
<rect width="1080" height="1080" fill="white"/>
</clipPath>
</defs>
</svg>
